<svg width="23" height="23" viewBox="0 0 23 23" fill="none" xmlns="http://www.w3.org/2000/svg">
<path d="M21.1063 22.1931C18.5083 22.1931 15.9759 21.6141 13.5089 20.4561C11.0418 19.2982 8.85677 17.7676 6.95365 15.8645C5.05052 13.9613 3.51997 11.7763 2.36198 9.30926C1.20399 6.84225 0.625 4.30978 0.625 1.71187C0.625 1.34937 0.745833 1.04728 0.9875 0.805615C1.22917 0.563949 1.53125 0.443115 1.89375 0.443115H6.7875C7.06944 0.443115 7.32118 0.53374 7.54271 0.71499C7.76424 0.89624 7.89514 1.12784 7.93542 1.40978L8.72083 5.63895C8.76111 5.92089 8.75608 6.17766 8.70573 6.40926C8.65538 6.64086 8.53958 6.84728 8.35833 7.02853L5.45833 9.98895C6.30417 11.4389 7.36146 12.7983 8.63021 14.0671C9.89896 15.3358 11.2986 16.4334 12.8292 17.3598L15.6687 14.5202C15.85 14.339 16.0866 14.203 16.3786 14.1124C16.6707 14.0218 16.9576 13.9966 17.2396 14.0369L21.4083 14.8827C21.6903 14.9431 21.9219 15.0791 22.1031 15.2905C22.2844 15.502 22.375 15.7487 22.375 16.0306V20.9244C22.375 21.2869 22.2542 21.589 22.0125 21.8306C21.7708 22.0723 21.4688 22.1931 21.1063 22.1931Z" fill="#7C56FE"/>
</svg>
