<svg width="20" height="14" viewBox="0 0 20 14" fill="none" xmlns="http://www.w3.org/2000/svg">
<path d="M4.5 14C3.25257 14 2.19071 13.5662 1.31442 12.6986C0.438142 11.831 0 10.7705 0 9.5173C0 8.33268 0.407692 7.30576 1.22308 6.43652C2.03846 5.56731 2.99615 5.1 4.09615 5.0346C4.32052 3.5782 4.99039 2.375 6.10577 1.425C7.22116 0.475 8.51923 0 10 0C11.6714 0 13.0893 0.582142 14.2536 1.74642C15.4179 2.91071 16 4.32857 16 6V7H16.6154C17.5731 7.03077 18.3766 7.38237 19.026 8.0548C19.6753 8.72723 20 9.5423 20 10.5C20 11.4808 19.6683 12.3093 19.0048 12.9856C18.3414 13.6619 17.5192 14 16.5385 14H11.1154C10.6551 14 10.2708 13.8458 9.9625 13.5375C9.65417 13.2292 9.5 12.8449 9.5 12.3846V6.58078L7.4 8.66922L6.6923 7.98078L10 4.67308L13.3077 7.98078L12.6 8.66922L10.5 6.58078V12.3846C10.5 12.5385 10.5641 12.6795 10.6923 12.8077C10.8205 12.9359 10.9615 13 11.1154 13H16.5C17.2 13 17.7917 12.7583 18.275 12.275C18.7583 11.7917 19 11.2 19 10.5C19 9.8 18.7583 9.20833 18.275 8.725C17.7917 8.24167 17.2 8 16.5 8H15V6C15 4.61667 14.5125 3.4375 13.5375 2.4625C12.5625 1.4875 11.3833 1 10 1C8.61667 1 7.4375 1.4875 6.4625 2.4625C5.4875 3.4375 5 4.61667 5 6H4.46155C3.53333 6 2.72436 6.34167 2.03462 7.025C1.34487 7.70833 1 8.53333 1 9.5C1 10.4667 1.34167 11.2917 2.025 11.975C2.70833 12.6583 3.53333 13 4.5 13H7V14H4.5Z" fill="#BEFF6C"/>
</svg>
