<svg width="20" height="20" viewBox="0 0 20 20" fill="none" xmlns="http://www.w3.org/2000/svg">
<path d="M2 12C1.45 12 0.979333 11.804 0.588 11.412C0.196 11.0207 0 10.55 0 10C0 9.45 0.196 8.979 0.588 8.587C0.979333 8.19567 1.45 8 2 8C2.55 8 3.02067 8.19567 3.412 8.587C3.804 8.979 4 9.45 4 10C4 10.55 3.804 11.0207 3.412 11.412C3.02067 11.804 2.55 12 2 12ZM3.65 17.7L2.25 16.3L6.6 11.95L8 13.35L3.65 17.7ZM6.65 8L2.3 3.65L3.7 2.25L8.05 6.6L6.65 8ZM10 20C9.45 20 8.97933 19.8043 8.588 19.413C8.196 19.021 8 18.55 8 18C8 17.45 8.196 16.979 8.588 16.587C8.97933 16.1957 9.45 16 10 16C10.55 16 11.021 16.1957 11.413 16.587C11.8043 16.979 12 17.45 12 18C12 18.55 11.8043 19.021 11.413 19.413C11.021 19.8043 10.55 20 10 20ZM10 4C9.45 4 8.97933 3.804 8.588 3.412C8.196 3.02067 8 2.55 8 2C8 1.45 8.196 0.979 8.588 0.587C8.97933 0.195667 9.45 0 10 0C10.55 0 11.021 0.195667 11.413 0.587C11.8043 0.979 12 1.45 12 2C12 2.55 11.8043 3.02067 11.413 3.412C11.021 3.804 10.55 4 10 4ZM13.35 8.05L11.95 6.6L16.35 2.25L17.75 3.65L13.35 8.05ZM16.35 17.7L12 13.35L13.4 11.95L17.75 16.3L16.35 17.7ZM18 12C17.45 12 16.979 11.804 16.587 11.412C16.1957 11.0207 16 10.55 16 10C16 9.45 16.1957 8.979 16.587 8.587C16.979 8.19567 17.45 8 18 8C18.55 8 19.021 8.19567 19.413 8.587C19.8043 8.979 20 9.45 20 10C20 10.55 19.8043 11.0207 19.413 11.412C19.021 11.804 18.55 12 18 12Z" fill="#1C1B1F"/>
</svg>
