<svg width="20" height="23" viewBox="0 0 20 23" fill="none" xmlns="http://www.w3.org/2000/svg">
<path d="M3.94336 10.5C3.94336 7.672 3.94336 6.257 4.82236 5.379C5.70036 4.5 7.11536 4.5 9.94336 4.5H12.9434C15.7714 4.5 17.1864 4.5 18.0644 5.379C18.9434 6.257 18.9434 7.672 18.9434 10.5V15.5C18.9434 18.328 18.9434 19.743 18.0644 20.621C17.1864 21.5 15.7714 21.5 12.9434 21.5H9.94336C7.11536 21.5 5.70036 21.5 4.82236 20.621C3.94336 19.743 3.94336 18.328 3.94336 15.5V10.5Z" stroke="#7C56FE" stroke-width="1.5"/>
<path d="M3.94336 18.5C3.14771 18.5 2.38465 18.1839 1.82204 17.6213C1.25943 17.0587 0.943359 16.2956 0.943359 15.5V9.5C0.943359 5.729 0.943359 3.843 2.11536 2.672C3.28636 1.5 5.17236 1.5 8.94336 1.5H12.9434C13.739 1.5 14.5021 1.81607 15.0647 2.37868C15.6273 2.94129 15.9434 3.70435 15.9434 4.5" stroke="#7C56FE" stroke-width="1.5"/>
</svg>
