<svg width="25" height="25" viewBox="0 0 25 25" fill="none" xmlns="http://www.w3.org/2000/svg">
<path d="M12.5001 24.4014C10.8487 24.4014 9.28793 24.0842 7.81779 23.4498C6.34765 22.8155 5.0638 21.9495 3.96623 20.8519C2.86866 19.7544 2.00269 18.4705 1.36831 17.0004C0.733936 15.5302 0.416748 13.9695 0.416748 12.3181C0.416748 10.6465 0.733936 9.08075 1.36831 7.62068C2.00269 6.16061 2.86866 4.88179 3.96623 3.78422C5.0638 2.68665 6.34765 1.82068 7.81779 1.1863C9.28793 0.551929 10.8487 0.234741 12.5001 0.234741C14.1716 0.234741 15.7374 0.551929 17.1975 1.1863C18.6575 1.82068 19.9364 2.68665 21.0339 3.78422C22.1315 4.88179 22.9975 6.16061 23.6318 7.62068C24.2662 9.08075 24.5834 10.6465 24.5834 12.3181V14.0702C24.5834 15.2584 24.1756 16.2703 23.36 17.1061C22.5444 17.9419 21.5424 18.3597 20.3542 18.3597C19.6292 18.3597 18.9546 18.1986 18.3303 17.8764C17.706 17.5542 17.1924 17.1313 16.7897 16.6077C16.2459 17.1514 15.6065 17.5794 14.8714 17.8915C14.1364 18.2037 13.3459 18.3597 12.5001 18.3597C10.8286 18.3597 9.40373 17.7707 8.2256 16.5926C7.04748 15.4144 6.45841 13.9896 6.45841 12.3181C6.45841 10.6465 7.04748 9.22172 8.2256 8.04359C9.40373 6.86547 10.8286 6.27641 12.5001 6.27641C14.1716 6.27641 15.5964 6.86547 16.7746 8.04359C17.9527 9.22172 18.5417 10.6465 18.5417 12.3181V14.0702C18.5417 14.6542 18.723 15.1123 19.0855 15.4446C19.448 15.7769 19.8709 15.9431 20.3542 15.9431C20.8376 15.9431 21.2605 15.7769 21.623 15.4446C21.9855 15.1123 22.1667 14.6542 22.1667 14.0702V12.3181C22.1667 9.67988 21.2152 7.40922 19.3121 5.5061C17.4089 3.60297 15.1383 2.65141 12.5001 2.65141C9.86189 2.65141 7.59123 3.60297 5.6881 5.5061C3.78498 7.40922 2.83341 9.67988 2.83341 12.3181C2.83341 14.9563 3.78498 17.2269 5.6881 19.1301C7.59123 21.0332 9.86189 21.9847 12.5001 21.9847H18.5417V24.4014H12.5001ZM12.5001 15.9431C13.507 15.9431 14.3629 15.5906 15.0678 14.8858C15.7726 14.1809 16.1251 13.325 16.1251 12.3181C16.1251 11.3111 15.7726 10.4552 15.0678 9.75037C14.3629 9.0455 13.507 8.69307 12.5001 8.69307C11.4931 8.69307 10.6372 9.0455 9.93237 9.75037C9.22751 10.4552 8.87508 11.3111 8.87508 12.3181C8.87508 13.325 9.22751 14.1809 9.93237 14.8858C10.6372 15.5906 11.4931 15.9431 12.5001 15.9431Z" fill="#7C56FE"/>
</svg>
