<svg width="23" height="11" viewBox="0 0 23 11" fill="none" xmlns="http://www.w3.org/2000/svg">
<path d="M7.5 5.5H15.5M8.5 1.5H5.5C4.43913 1.5 3.42172 1.92143 2.67157 2.67157C1.92143 3.42172 1.5 4.43913 1.5 5.5C1.5 6.56087 1.92143 7.57828 2.67157 8.32843C3.42172 9.07857 4.43913 9.5 5.5 9.5H8.5M14.5 1.5H17.5C18.5609 1.5 19.5783 1.92143 20.3284 2.67157C21.0786 3.42172 21.5 4.43913 21.5 5.5C21.5 6.56087 21.0786 7.57828 20.3284 8.32843C19.5783 9.07857 18.5609 9.5 17.5 9.5H14.5" stroke="#BEFF6C" stroke-width="2" stroke-linecap="round" stroke-linejoin="round"/>
</svg>
