<svg width="26" height="26" viewBox="0 0 26 26" fill="none" xmlns="http://www.w3.org/2000/svg">
<path fill-rule="evenodd" clip-rule="evenodd" d="M22.8804 11.0501H13.1304V14.9501H18.8504C18.3304 17.6801 15.8604 19.5001 13.1304 19.3701C9.75035 19.2401 7.15035 16.6401 7.02035 13.2601C6.89035 9.7501 9.62035 6.7601 13.1304 6.6301C14.5604 6.6301 15.9904 7.1501 17.1604 8.1901L20.1504 5.3301C18.3304 3.5101 15.7304 2.6001 13.2604 2.6001C7.54035 2.6001 2.86035 7.2801 2.86035 13.0001C2.86035 18.7201 7.54035 23.4001 13.2604 23.4001C19.2404 23.4001 23.2704 19.2401 23.2704 13.2601C23.1404 12.4801 23.1404 11.8301 22.8804 11.0501Z" fill="#7C56FE"/>
</svg>
