<svg width="21" height="25" viewBox="0 0 21 25" fill="none" xmlns="http://www.w3.org/2000/svg">
<path d="M10.4999 12.3181C11.1645 12.3181 11.7334 12.0814 12.2067 11.6082C12.68 11.1349 12.9166 10.566 12.9166 9.90141C12.9166 9.23682 12.68 8.6679 12.2067 8.19464C11.7334 7.72137 11.1645 7.48474 10.4999 7.48474C9.83534 7.48474 9.26641 7.72137 8.79315 8.19464C8.31988 8.6679 8.08325 9.23682 8.08325 9.90141C8.08325 10.566 8.31988 11.1349 8.79315 11.6082C9.26641 12.0814 9.83534 12.3181 10.4999 12.3181ZM10.4999 24.4014C7.25756 21.6424 4.83586 19.0797 3.23481 16.7134C1.63377 14.3471 0.833252 12.157 0.833252 10.1431C0.833252 7.12224 1.80495 4.71564 3.74836 2.92328C5.69176 1.13092 7.94228 0.234741 10.4999 0.234741C13.0576 0.234741 15.3081 1.13092 17.2515 2.92328C19.1949 4.71564 20.1666 7.12224 20.1666 10.1431C20.1666 12.157 19.3661 14.3471 17.765 16.7134C16.164 19.0797 13.7423 21.6424 10.4999 24.4014Z" fill="#7C56FE"/>
</svg>
