<svg width="24" height="21" viewBox="0 0 24 21" fill="none" xmlns="http://www.w3.org/2000/svg">
<path d="M16.7804 0.456775C17.1289 0.397029 17.4909 0.477439 17.7398 0.680486C21.5458 3.31875 23.6184 6.80289 23.6184 10.4595C23.6184 14.1925 21.5458 17.683 17.7398 20.3199C17.5226 20.4996 17.2104 20.5849 16.8981 20.558C16.5813 20.531 16.2872 20.3962 16.0654 20.1761L7.76572 11.9689C7.5123 11.7218 7.37201 11.3849 7.33128 11.03C7.33128 10.6796 7.5123 10.3427 7.7612 10.0912C8.01462 9.8441 8.35403 9.70035 8.70702 9.70035C9.06453 9.70035 9.40394 9.83961 9.65284 10.0867L17.1244 17.4718C19.5953 15.4638 20.9393 13.0156 20.9393 10.4595C20.9393 7.69234 19.2694 4.97008 16.2374 2.85246C15.9478 2.64941 15.7486 2.3399 15.6898 1.99265C15.6265 1.64541 15.7079 1.28828 15.9161 1.00033C16.1197 0.71238 16.432 0.51697 16.7804 0.456775ZM7.45799 20.5445C7.10953 20.6029 6.75202 20.522 6.45786 20.3199C2.69585 17.683 0.621826 14.1925 0.621826 10.4595C0.621826 6.80289 2.69585 3.31875 6.45786 0.680486C6.71582 0.500349 7.02807 0.416345 7.34485 0.442849C7.65711 0.469353 7.95127 0.604568 8.17301 0.825134L16.4727 9.03101C16.7261 9.27808 16.8664 9.615 16.8664 9.96988C16.871 10.2798 16.7307 10.6572 16.4772 10.9087C16.2283 11.1558 15.8889 11.2996 15.5314 11.2996C15.1784 11.2996 14.7983 11.1603 14.5856 10.9132L7.11406 3.52359C4.64315 5.55406 3.30045 7.97984 3.30045 10.4595C3.30045 13.3076 4.96899 16.0298 7.96484 18.1457C8.2952 18.3523 8.4898 18.6578 8.55315 19.0082C8.61198 19.3541 8.53053 19.7134 8.32688 20.0009C8.12323 20.2884 7.81098 20.4816 7.45799 20.5445Z" fill="#BEFF6C"/>
</svg>
