<svg width="270" height="270" viewBox="0 0 270 270" fill="none" xmlns="http://www.w3.org/2000/svg">
<path d="M149.917 269.25V239.417H179.75V269.25H149.917ZM120.083 239.417V164.833H149.917V239.417H120.083ZM239.417 194.667V135H269.25V194.667H239.417ZM209.583 135V105.167H239.417V135H209.583ZM30.5833 164.833V135H60.4167V164.833H30.5833ZM0.75 135V105.167H30.5833V135H0.75ZM135 30.5833V0.75H164.833V30.5833H135ZM23.125 67.875H67.875V23.125H23.125V67.875ZM0.75 90.25V15.75C0.75 7.46573 7.46573 0.75 15.75 0.75H90.25V90.25H0.75ZM23.125 246.875H67.875V202.125H23.125V246.875ZM15.75 269.25C7.46573 269.25 0.75 262.534 0.75 254.25V179.75H90.25V269.25H15.75ZM202.125 67.875H246.875V23.125H202.125V67.875ZM179.75 90.25V0.75H254.25C262.534 0.75 269.25 7.46573 269.25 15.75V90.25H179.75ZM209.583 269.25V224.5H179.75V194.667H239.417V239.417H269.25V254.25C269.25 262.534 262.534 269.25 254.25 269.25H209.583ZM149.917 164.833V135H209.583V164.833H149.917ZM90.25 164.833V135H60.4167V105.167H149.917V135H120.083V164.833H90.25ZM105.167 90.25V30.5833H135V60.4167H164.833V90.25H105.167ZM34.3125 56.6875V34.3125H56.6875V56.6875H34.3125ZM34.3125 235.688V213.312H56.6875V235.688H34.3125ZM213.312 56.6875V34.3125H235.688V56.6875H213.312Z" fill="#BEFF6C"/>
</svg>
