<svg width="22" height="22" viewBox="0 0 22 22" fill="none" xmlns="http://www.w3.org/2000/svg">
<path d="M12.1667 21.5V19.1667H14.5V21.5H12.1667ZM9.83333 19.1667V13.3333H12.1667V19.1667H9.83333ZM19.1667 15.6667V11H21.5V15.6667H19.1667ZM16.8333 11V8.66667H19.1667V11H16.8333ZM2.83333 13.3333V11H5.16667V13.3333H2.83333ZM0.5 11V8.66667H2.83333V11H0.5ZM11 2.83333V0.5H13.3333V2.83333H11ZM2.25 5.75H5.75V2.25H2.25V5.75ZM0.5 7.5V0.5H7.5V7.5H0.5ZM2.25 19.75H5.75V16.25H2.25V19.75ZM0.5 21.5V14.5H7.5V21.5H0.5ZM16.25 5.75H19.75V2.25H16.25V5.75ZM14.5 7.5V0.5H21.5V7.5H14.5ZM16.8333 21.5V18H14.5V15.6667H19.1667V19.1667H21.5V21.5H16.8333ZM12.1667 13.3333V11H16.8333V13.3333H12.1667ZM7.5 13.3333V11H5.16667V8.66667H12.1667V11H9.83333V13.3333H7.5ZM8.66667 7.5V2.83333H11V5.16667H13.3333V7.5H8.66667ZM3.125 4.875V3.125H4.875V4.875H3.125ZM3.125 18.875V17.125H4.875V18.875H3.125ZM17.125 4.875V3.125H18.875V4.875H17.125Z" fill="#BEFF6C"/>
</svg>
