<svg width="24" height="24" viewBox="0 0 24 24" fill="none" xmlns="http://www.w3.org/2000/svg">
<path d="M23.2 23.2L16.8 16.8M10.4 20C9.13936 20 7.89101 19.7517 6.72629 19.2692C5.56156 18.7868 4.50327 18.0797 3.61182 17.1882C2.72038 16.2968 2.01325 15.2385 1.53081 14.0737C1.04836 12.909 0.800049 11.6607 0.800049 10.4C0.800049 9.1393 1.04836 7.89095 1.53081 6.72623C2.01325 5.5615 2.72038 4.50321 3.61182 3.61176C4.50327 2.72032 5.56156 2.01319 6.72629 1.53074C7.89101 1.0483 9.13936 0.799988 10.4 0.799988C12.9461 0.799988 15.3879 1.81141 17.1883 3.61176C18.9886 5.41211 20 7.85391 20 10.4C20 12.9461 18.9886 15.3879 17.1883 17.1882C15.3879 18.9886 12.9461 20 10.4 20Z" stroke="#4F4F4F" stroke-width="1.6"/>
</svg>
