<svg width="19" height="13" viewBox="0 0 19 13" fill="none" xmlns="http://www.w3.org/2000/svg">
<path d="M9.50008 9.66669C10.4897 9.66669 11.3308 9.32033 12.0235 8.62762C12.7162 7.93492 13.0626 7.09377 13.0626 6.10419C13.0626 5.1146 12.7162 4.27346 12.0235 3.58075C11.3308 2.88804 10.4897 2.54169 9.50008 2.54169C8.5105 2.54169 7.66935 2.88804 6.97664 3.58075C6.28394 4.27346 5.93758 5.1146 5.93758 6.10419C5.93758 7.09377 6.28394 7.93492 6.97664 8.62762C7.66935 9.32033 8.5105 9.66669 9.50008 9.66669ZM9.50008 8.24169C8.90633 8.24169 8.40164 8.03387 7.98602 7.61825C7.57039 7.20262 7.36258 6.69794 7.36258 6.10419C7.36258 5.51044 7.57039 5.00575 7.98602 4.59012C8.40164 4.1745 8.90633 3.96669 9.50008 3.96669C10.0938 3.96669 10.5985 4.1745 11.0141 4.59012C11.4298 5.00575 11.6376 5.51044 11.6376 6.10419C11.6376 6.69794 11.4298 7.20262 11.0141 7.61825C10.5985 8.03387 10.0938 8.24169 9.50008 8.24169ZM9.50008 12.0417C7.57369 12.0417 5.81883 11.504 4.2355 10.4287C2.65216 9.35332 1.50425 7.91183 0.791748 6.10419C1.50425 4.29655 2.65216 2.85506 4.2355 1.77971C5.81883 0.704361 7.57369 0.166687 9.50008 0.166687C11.4265 0.166687 13.1813 0.704361 14.7647 1.77971C16.348 2.85506 17.4959 4.29655 18.2084 6.10419C17.4959 7.91183 16.348 9.35332 14.7647 10.4287C13.1813 11.504 11.4265 12.0417 9.50008 12.0417Z" fill="#F2F2F2"/>
</svg>
