<svg width="26" height="25" viewBox="0 0 26 25" fill="none" xmlns="http://www.w3.org/2000/svg">
<path d="M21.5187 3.93295C20.4109 2.81394 19.0914 1.92671 17.6371 1.32301C16.1828 0.719306 14.6229 0.411213 13.0483 0.416698C6.4508 0.416698 1.07372 5.79378 1.07372 12.3913C1.07372 14.5059 1.62955 16.56 2.66872 18.3725L0.977051 24.5834L7.3208 22.9159C9.07288 23.8704 11.0425 24.3779 13.0483 24.3779C19.6458 24.3779 25.0229 19.0009 25.0229 12.4034C25.0229 9.20128 23.7783 6.19253 21.5187 3.93295ZM13.0483 22.3479C11.26 22.3479 9.50788 21.8646 7.9733 20.9584L7.6108 20.7409L3.8408 21.7317L4.84372 18.0584L4.60205 17.6838C3.60849 16.0972 3.08093 14.2633 3.07955 12.3913C3.07955 6.90545 7.55038 2.43461 13.0362 2.43461C15.6946 2.43461 18.1958 3.47378 20.0687 5.35878C20.9961 6.2819 21.731 7.37992 22.2309 8.58917C22.7308 9.79843 22.9857 11.0949 22.9808 12.4034C23.005 17.8892 18.5341 22.3479 13.0483 22.3479ZM18.51 14.9046C18.2079 14.7596 16.7337 14.0346 16.4679 13.9259C16.19 13.8292 15.9966 13.7809 15.7912 14.0709C15.5858 14.3729 15.0179 15.0496 14.8487 15.2429C14.6796 15.4484 14.4983 15.4725 14.1962 15.3154C13.8941 15.1704 12.9275 14.8442 11.7916 13.8292C10.8975 13.0317 10.3054 12.0529 10.1241 11.7509C9.95497 11.4488 10.1 11.2917 10.2571 11.1346C10.39 11.0017 10.5591 10.7842 10.7041 10.615C10.8491 10.4459 10.9096 10.3129 11.0062 10.1196C11.1029 9.9142 11.0546 9.74503 10.9821 9.60003C10.9096 9.45503 10.3054 7.98087 10.0637 7.3767C9.82205 6.7967 9.5683 6.8692 9.38705 6.85711H8.80705C8.60163 6.85711 8.28747 6.92961 8.00955 7.2317C7.74372 7.53378 6.97038 8.25878 6.97038 9.73295C6.97038 11.2071 8.0458 12.6329 8.1908 12.8263C8.3358 13.0317 10.3054 16.0525 13.3021 17.3454C14.015 17.6596 14.5708 17.8409 15.0058 17.9738C15.7187 18.2034 16.3712 18.1671 16.8908 18.0946C17.4708 18.01 18.667 17.3696 18.9087 16.6688C19.1625 15.9679 19.1625 15.3759 19.0779 15.2429C18.9933 15.11 18.8121 15.0496 18.51 14.9046Z" fill="#7C56FE"/>
</svg>
