<svg width="25" height="25" viewBox="0 0 25 25" fill="none" xmlns="http://www.w3.org/2000/svg">
<path fill-rule="evenodd" clip-rule="evenodd" d="M21.0564 3.51256C18.7945 1.24863 15.7866 0.00133644 12.5814 0C5.97765 0 0.603173 5.37248 0.6005 11.9763C0.597893 14.078 1.1495 16.1432 2.19968 17.9636L0.5 24.17L6.85128 22.5045C8.60802 23.461 10.5764 23.9622 12.5766 23.9623H12.5815C19.1845 23.9623 24.5596 18.5892 24.5623 11.9854C24.5635 8.7852 23.3185 5.77595 21.0564 3.51242V3.51256ZM12.5815 21.94H12.5774C10.7941 21.9403 9.04354 21.461 7.50908 20.5524L7.14543 20.3367L3.37668 21.3257L4.38262 17.6522L4.1462 17.2749C3.14843 15.6882 2.62022 13.8514 2.62266 11.977C2.62534 6.4884 7.09251 2.0231 12.5854 2.0231C15.2449 2.02417 17.7454 3.06098 19.6255 4.94268C21.5056 6.82438 22.5404 9.32539 22.5389 11.9857C22.5368 17.4749 18.0697 21.9407 12.5811 21.9407L12.5815 21.94Z" fill="#7C56FE"/>
<path fill-rule="evenodd" clip-rule="evenodd" d="M8.56436 17.778C8.64869 17.8288 8.8219 17.8288 9.21922 17.8284C10.9051 17.8269 12.3613 17.8218 13.3972 17.8218C18.2312 17.8218 18.1041 12.7328 15.8439 12.0978C16.175 11.5114 17.6833 10.4097 16.7504 8.13237C15.8283 5.88061 11.8611 6.39166 9.14799 6.393C8.14406 6.393 8.29427 7.13486 8.29935 8.2882C8.30764 10.115 8.30082 15.0595 8.29935 17.197C8.29935 17.6303 8.43019 17.6969 8.56436 17.778ZM10.656 15.913C11.1124 15.913 12.189 15.913 13.112 15.9115C14.1571 15.9099 15.0876 15.421 15.0644 14.3806C15.0474 13.4006 14.3954 13.0789 13.4903 12.9891C12.6283 12.9974 11.6424 12.9974 10.656 12.9974V15.913ZM10.656 11.0291C12.4742 11.0041 13.1757 11.1023 14.1684 10.8538C14.85 10.4662 15.1486 9.03059 14.1723 8.54279C13.4941 8.20401 11.49 8.31987 10.656 8.35462V11.0291Z" fill="#7C56FE"/>
</svg>
